<svg width="95" height="549" viewBox="0 0 95 549" fill="none" xmlns="http://www.w3.org/2000/svg">
<path d="M47.4529 454.332C35.3996 454.327 23.3462 458.914 14.1489 468.111C1.25424 481.007 -2.58976 499.515 2.59957 515.767L47.4529 470.914V454.332Z" fill="black"/>
<path d="M91.8349 487.533C97.0242 503.785 93.1815 522.295 80.2855 535.189C71.0882 544.388 59.0349 548.973 46.9815 548.968V532.387L91.8349 487.533Z" fill="black"/>
<path d="M80.7568 468.111C77.6274 464.982 74.1608 462.398 70.4821 460.332L6.37012 524.443C8.43545 528.123 11.0194 531.588 14.1488 534.719C17.2794 537.848 20.7448 540.432 24.4248 542.498L88.5354 478.386C86.4701 474.707 83.8861 471.24 80.7568 468.111Z" fill="black"/>
<path d="M13.9249 354.793C5.39826 363.313 0.118256 375.078 0.118256 388.085C0.118256 406.322 10.4889 422.127 25.6503 429.95V366.518L13.9249 354.793Z" fill="black"/>
<path d="M68.7843 429.95C83.9457 422.127 94.3163 406.322 94.3163 388.085C94.3163 375.078 89.0363 363.313 80.5097 354.793L68.7843 366.518V429.95Z" fill="black"/>
<path d="M47.2172 340.986C42.7906 340.986 38.5132 341.61 34.4519 342.752V433.418C38.5132 434.56 42.7906 435.184 47.2172 435.184C51.6439 435.184 55.9212 434.56 59.9826 433.418V342.752C55.9212 341.61 51.6439 340.986 47.2172 340.986Z" fill="black"/>
<path d="M80.5096 308.031C89.0363 299.511 94.3163 287.746 94.3163 274.739C94.3163 256.502 83.9456 240.697 68.7843 232.874V296.306L80.5096 308.031Z" fill="black"/>
<path d="M25.6502 232.874C10.4888 240.696 0.118164 256.502 0.118164 274.739C0.118164 287.746 5.39816 299.511 13.9248 308.031L25.6502 296.306V232.874Z" fill="black"/>
<path d="M47.2173 321.838C51.644 321.838 55.9213 321.214 59.9827 320.072V229.406C55.9213 228.264 51.644 227.64 47.2173 227.64C42.7907 227.64 38.5133 228.264 34.452 229.406V320.072C38.5133 321.214 42.7907 321.838 47.2173 321.838Z" fill="black"/>
<path d="M47.4529 113.855C35.3996 113.85 23.3462 118.437 14.1489 127.634C1.25424 140.53 -2.58976 159.038 2.59957 175.29L47.4529 130.437V113.855Z" fill="black"/>
<path d="M91.8349 147.056C97.0242 163.308 93.1802 181.818 80.2855 194.712C71.0882 203.911 59.0349 208.496 46.9815 208.491V191.91L91.8349 147.056Z" fill="black"/>
<path d="M80.7568 127.634C77.6274 124.505 74.1608 121.921 70.4821 119.855L6.37012 183.966C8.43545 187.646 11.0194 191.111 14.1488 194.242C17.2794 197.371 20.7448 199.955 24.4248 202.021L88.5354 137.909C86.4701 134.23 83.8861 130.763 80.7568 127.634Z" fill="black"/>
<path d="M47.3172 0.425541C35.2633 0.420827 23.2105 5.00665 14.0134 14.2038C1.11763 27.0995 -2.72526 45.6087 2.46396 61.8609L47.3172 17.0077V0.425541Z" fill="black"/>
<path d="M32.9644 92.3613C49.2165 97.5505 67.7258 93.7076 80.6215 80.8119C89.8186 71.6148 94.4044 59.5619 94.3997 47.5081L77.8176 47.5081L32.9644 92.3613Z" fill="black"/>
<path d="M80.5211 14.3041C77.391 11.174 73.9252 8.59071 70.2464 6.52596L6.13537 70.637C8.20013 74.3158 10.7834 77.7816 13.9135 80.9117C17.0437 84.0418 20.5094 86.6251 24.1883 88.6899L88.2993 24.5789C86.2345 20.9 83.6512 17.4343 80.5211 14.3041Z" fill="black"/>
</svg>
